<?xml version="1.0" encoding="UTF-8"?>
<svg id="Layer_1" xmlns="http://www.w3.org/2000/svg" version="1.1" viewBox="0 0 512 512">
  <!-- Generator: Adobe Illustrator 29.0.1, SVG Export Plug-In . SVG Version: 2.1.0 Build 192)  -->
  <defs>
    <style>
      .st0 {
        fill: #333;
      }
    </style>
  </defs>
  <path class="st0" d="M455.7,108.4c5.1,5.1,10.2,12.8,13.7,21.3,3.4,9.4,6,17.9,6,24.7v329.4c0,7.7-2.6,14.5-7.7,19.6-5.1,5.1-11.9,8.5-19.6,8.5H64c-7.7,0-14.5-2.6-19.6-7.7-5.1-5.1-7.7-11.9-7.7-19.6V27.3c0-7.7,2.6-14.5,7.7-19.6S56.3,0,64,0h256c7.7,0,16.2,1.7,24.7,6,9.4,3.4,16.2,8.5,21.3,13.7l89.6,88.7ZM329.4,39.3v107.5h107.5c-1.7-5.1-4.3-9.4-6-11.9l-90.5-89.6c-1.7-2.6-6-4.3-11.1-6ZM438.6,475.3V182.6h-118.6c-7.7,0-14.5-2.6-19.6-7.7-5.1-5.1-7.7-11.9-7.7-19.6V36.7H73.4v438.6h365.2ZM213.3,243.2c3.4,1.7,6,4.3,6,8.5v155.3c0,4.3-1.7,6.8-6,8.5-1.7,0-2.6.9-3.4.9-2.6,0-4.3-.9-6.8-2.6l-47.8-47.8h-37.5c-2.6,0-5.1-.9-6.8-2.6-1.7-1.7-2.6-4.3-2.6-6.8v-54.6c0-2.6.9-5.1,2.6-6.8,1.7-1.7,4.3-2.6,6.8-2.6h37.5l47.8-47.8c3.4-2.6,6.8-3.4,10.2-1.7ZM332.8,439.5c6,0,11.1-2.6,14.5-6.8,24.7-29.9,36.7-64.9,36.7-104.1s-11.9-73.4-36.7-104.1c-3.4-4.3-6.8-6-11.9-6.8-5.1-.9-9.4.9-13.7,4.3-4.3,3.4-6,7.7-6.8,12.8-.9,5.1.9,9.4,4.3,13.7,18.8,23,28.2,50.3,28.2,80.2s-9.4,57.2-28.2,80.2c-3.4,4.3-4.3,8.5-4.3,13.7.9,5.1,2.6,9.4,6.8,11.9,3.4,4.3,6.8,5.1,11.1,5.1ZM272.2,397.7c5.1,0,9.4-1.7,13.7-6,16.2-17.9,24.7-38.4,24.7-62.3s-8.5-45.2-24.7-62.3c-3.4-3.4-7.7-5.1-12.8-6-5.1,0-9.4,1.7-12.8,5.1-3.4,3.4-5.1,7.7-6,12.8,0,5.1,1.7,9.4,5.1,13.7,10.2,11.1,14.5,23,14.5,37.5s-5.1,26.5-14.5,37.5c-3.4,3.4-5.1,8.5-5.1,13.7s1.7,9.4,6,12.8c3.4,1.7,7.7,3.4,11.9,3.4Z"/>
</svg>