<?xml version="1.0" encoding="UTF-8"?>
<svg id="Layer_1" xmlns="http://www.w3.org/2000/svg" version="1.1" viewBox="0 0 171.5 374.6">
  <!-- Generator: Adobe Illustrator 29.0.1, SVG Export Plug-In . SVG Version: 2.1.0 Build 192)  -->
  <defs>
    <style>
      .st0 {
        fill: #bcbcbc;
      }
    </style>
  </defs>
  <path class="st0" d="M171,23.6l.5,244-56.5,52.5c-2.8,4.9.7,19.1-1.2,22.3s-28.3,32.2-28.3,32.2c-3.7-5.1-7.5-10.6-11.5-15.5-2.6-3.2-14.5-15.5-15.5-17.5-2.3-5.1,1.4-16.5-1.5-21.5L0,267.1V23.6h40.5c21.8-31.2,69.7-31.8,91,0h39.5ZM48,49.1c-1.9,15.9,1.4,35.2,0,51.5h76v-51.5c0-14.8-18.4-30.7-32.6-32.4s-41,12-43.4,32.4ZM78,272.6c-18,.5-43.1-17.4-45.7-35.8,1.7-61.6-3.2-125.4-.3-186.8s2-8.4,2-9c-.1-2.4-2.3-.5-2.5-.5h-14.5v220.5l49,44,36.7,1.2c3.4-.1,43.7-37.8,49.3-43.3,1.2-1.1,3-1.3,3-1.4V40.6h-17c.9,3.8,1.8,7.5,2,11.5,3.6,57.7-2.8,119,0,177.1-.5,23.5-22.2,41.3-44.4,43.6l-1.7,1.3v19.5h-16v-21ZM78,116.6h-19c-.5,29.4,1,59.1-.9,88.3l19.9,13.7v-102ZM113,116.6h-19v102l19-13.5v-88.5ZM80,240.6l-31.5-23c-2-.3-1.3,0-1.5,1.5-2.8,21.3,12.8,36.4,33,38.5v-17ZM92,258.6c11-2.9,21.7-7.6,27.8-17.7s4.2-8,4.2-8.8v-14.5l-32,23.5v17.5ZM99,319.6h-26v14.5c0,1,11.3,12.2,12.5,14.5l13.5-14.5v-14.5Z"/>
</svg>